<svg viewBox="0 0 140 87" fill="none" xmlns="http://www.w3.org/2000/svg">
<path d="M16.53 37.76C12.1727 37.76 8.72733 36.4047 6.194 33.694C3.686 30.958 2.432 27.5253 2.432 23.396C2.432 19.2413 3.8 15.8087 6.536 13.098C9.272 10.3873 12.768 9.032 17.024 9.032C20.3933 9.032 23.3827 9.45 25.992 10.286C26.1187 10.362 26.182 10.4633 26.182 10.59C26.182 10.6913 26.144 11.084 26.068 11.768C25.7387 14.124 25.5613 15.8467 25.536 16.936C25.156 17.012 24.89 17.05 24.738 17.05C24.586 17.05 24.358 16.9993 24.054 16.898C23.826 15.15 23.598 13.8453 23.37 12.984C22.7113 12.2747 21.7867 11.6667 20.596 11.16C19.4053 10.6533 18.05 10.4 16.53 10.4C13.642 10.4 11.248 11.4133 9.348 13.44C7.47333 15.4667 6.536 18.2407 6.536 21.762C6.536 24.2447 6.94133 26.5753 7.752 28.754C8.588 30.9327 9.81667 32.7313 11.438 34.15C13.0847 35.5433 15.0353 36.24 17.29 36.24C19.5447 36.24 21.546 35.632 23.294 34.416C23.7753 33.6053 24.3707 32.25 25.08 30.35C25.688 30.35 26.1567 30.4767 26.486 30.73C26.1313 32.554 25.8653 34.3907 25.688 36.24C25.6627 36.5187 25.498 36.6833 25.194 36.734C22.762 37.418 19.874 37.76 16.53 37.76ZM49.7331 27.728C49.7331 33.352 46.4651 36.696 39.9291 37.76C37.2438 37.76 34.9764 36.81 33.1271 34.91C31.3031 32.9847 30.3911 30.5907 30.3911 27.728C30.3911 22.0533 33.6718 18.6967 40.2331 17.658C42.8931 17.658 45.1351 18.6333 46.9591 20.584C48.8084 22.5347 49.7331 24.916 49.7331 27.728ZM40.7651 36.126C44.4131 36.126 46.2371 33.7953 46.2371 29.134C46.2371 26.4993 45.6291 24.194 44.4131 22.218C43.1971 20.242 41.5884 19.254 39.5871 19.254C37.5858 19.254 36.1291 19.9 35.2171 21.192C34.3304 22.4587 33.8871 24.2827 33.8871 26.664C33.8871 29.02 34.5078 31.186 35.7491 33.162C36.9904 35.138 38.6624 36.126 40.7651 36.126ZM63.37 37.114L58.126 37C56.0234 37 54.098 37.1013 52.35 37.304C52.2234 37.152 52.16 36.9367 52.16 36.658L52.198 36.354C53.8447 36.0247 54.8327 35.3787 55.162 34.416C55.5674 33.276 55.77 28.8807 55.77 21.23V19.976L52.008 20.014C51.8307 19.9127 51.742 19.7607 51.742 19.558C51.8687 19.3047 52.008 18.874 52.16 18.266H55.808C55.8334 17.8607 55.9094 16.7207 56.036 14.846C56.188 12.946 56.5807 11.3373 57.214 10.02C57.8727 8.70267 58.5947 7.71467 59.38 7.056C60.1654 6.372 61.0267 5.81466 61.964 5.384C63.332 4.776 64.5987 4.472 65.764 4.472C66.9547 4.472 68.5127 4.94066 70.438 5.878C70.3367 6.46066 70.1087 7.03066 69.754 7.588C69.4247 8.12 68.994 8.48733 68.462 8.69C66.334 6.96733 64.7127 6.106 63.598 6.106C62.7114 6.106 61.812 6.828 60.9 8.272C59.988 9.716 59.4434 11.2993 59.266 13.022C59.0887 14.7193 58.9874 16.4673 58.962 18.266C60.8874 18.266 62.5594 18.1773 63.978 18C64.13 18.1013 64.206 18.266 64.206 18.494C64.1047 18.6967 64.016 18.9627 63.94 19.292C63.8894 19.596 63.8514 19.786 63.826 19.862L58.886 19.938V25.638C58.886 32.3767 59.038 35.7587 59.342 35.784C60.3807 35.8853 61.7234 35.936 63.37 35.936C63.4714 36.1387 63.522 36.3413 63.522 36.544C63.522 36.7213 63.4714 36.9113 63.37 37.114ZM76.7294 37.114L71.4854 37C69.3828 37 67.4574 37.1013 65.7094 37.304C65.5828 37.152 65.5194 36.9367 65.5194 36.658L65.5574 36.354C67.2041 36.0247 68.1921 35.3787 68.5214 34.416C68.9268 33.276 69.1294 28.8807 69.1294 21.23V19.976L65.3674 20.014C65.1901 19.9127 65.1014 19.7607 65.1014 19.558C65.2281 19.3047 65.3674 18.874 65.5194 18.266H69.1674C69.1928 17.8607 69.2688 16.7207 69.3954 14.846C69.5474 12.946 69.9401 11.3373 70.5734 10.02C71.2321 8.70267 71.9541 7.71467 72.7394 7.056C73.5248 6.372 74.3861 5.81466 75.3234 5.384C76.6914 4.776 77.9581 4.472 79.1234 4.472C80.3141 4.472 81.8721 4.94066 83.7974 5.878C83.6961 6.46066 83.4681 7.03066 83.1134 7.588C82.7841 8.12 82.3534 8.48733 81.8214 8.69C79.6934 6.96733 78.0721 6.106 76.9574 6.106C76.0708 6.106 75.1714 6.828 74.2594 8.272C73.3474 9.716 72.8028 11.2993 72.6254 13.022C72.4481 14.7193 72.3468 16.4673 72.3214 18.266C74.2468 18.266 75.9188 18.1773 77.3374 18C77.4894 18.1013 77.5654 18.266 77.5654 18.494C77.4641 18.6967 77.3754 18.9627 77.2994 19.292C77.2488 19.596 77.2108 19.786 77.1854 19.862L72.2454 19.938V25.638C72.2454 32.3767 72.3974 35.7587 72.7014 35.784C73.7401 35.8853 75.0828 35.936 76.7294 35.936C76.8308 36.1387 76.8814 36.3413 76.8814 36.544C76.8814 36.7213 76.8308 36.9113 76.7294 37.114ZM89.3668 35.024C91.4441 35.024 93.2808 34.4667 94.8768 33.352C95.2315 33.4787 95.4341 33.7447 95.4848 34.15L91.3808 37.038C90.7728 37.5193 89.4175 37.76 87.3148 37.76C85.2121 37.76 83.4261 36.8227 81.9568 34.948C80.4875 33.048 79.7528 30.654 79.7528 27.766C79.7528 24.878 80.5508 22.598 82.1468 20.926C83.7428 19.254 85.6428 18.1647 87.8468 17.658C89.7721 17.658 91.4695 18.304 92.9388 19.596C93.8255 20.356 94.4461 21.344 94.8008 22.56C94.8768 22.864 95.2315 23.0287 95.8648 23.054C96.0168 23.2313 96.0928 23.4213 96.0928 23.624C96.0928 23.8013 96.0675 23.9913 96.0168 24.194C91.5581 25.2327 87.1755 25.9547 82.8688 26.36C82.8688 29.6027 83.7681 32.0347 85.5668 33.656C86.5801 34.568 87.8468 35.024 89.3668 35.024ZM91.7608 23.434C91.8875 23.358 91.9508 23.2693 91.9508 23.168C91.9508 23.0413 91.7861 22.6867 91.4568 22.104C91.1528 21.496 90.6081 20.8627 89.8228 20.204C89.0375 19.52 88.2141 19.178 87.3528 19.178C86.4915 19.178 85.8581 19.3047 85.4528 19.558C84.0341 20.5207 83.2235 22.2687 83.0208 24.802C84.3888 24.802 85.9468 24.6627 87.6948 24.384C89.4428 24.08 90.7981 23.7633 91.7608 23.434ZM108.998 35.024C111.075 35.024 112.912 34.4667 114.508 33.352C114.862 33.4787 115.065 33.7447 115.116 34.15L111.012 37.038C110.404 37.5193 109.048 37.76 106.946 37.76C104.843 37.76 103.057 36.8227 101.588 34.948C100.118 33.048 99.3837 30.654 99.3837 27.766C99.3837 24.878 100.182 22.598 101.778 20.926C103.374 19.254 105.274 18.1647 107.478 17.658C109.403 17.658 111.1 18.304 112.57 19.596C113.456 20.356 114.077 21.344 114.432 22.56C114.508 22.864 114.862 23.0287 115.496 23.054C115.648 23.2313 115.724 23.4213 115.724 23.624C115.724 23.8013 115.698 23.9913 115.648 24.194C111.189 25.2327 106.806 25.9547 102.5 26.36C102.5 29.6027 103.399 32.0347 105.198 33.656C106.211 34.568 107.478 35.024 108.998 35.024ZM111.392 23.434C111.518 23.358 111.582 23.2693 111.582 23.168C111.582 23.0413 111.417 22.6867 111.088 22.104C110.784 21.496 110.239 20.8627 109.454 20.204C108.668 19.52 107.845 19.178 106.984 19.178C106.122 19.178 105.489 19.3047 105.084 19.558C103.665 20.5207 102.854 22.2687 102.652 24.802C104.02 24.802 105.578 24.6627 107.326 24.384C109.074 24.08 110.429 23.7633 111.392 23.434Z" fill="#EFE3C8" fill-opacity="0.5"/>
<path d="M5.2 43.85C5.16667 43.6833 5.15 43.5167 5.15 43.35C5.15 43.15 5.23333 42.9 5.4 42.6C7.53333 42.8667 10 43 12.8 43C15.6 43 18.05 42.95 20.15 42.85C20.2167 43.05 20.25 43.3 20.25 43.6L20.15 44.4C18.2167 44.4 16.85 44.4167 16.05 44.45C16.05 45.7167 16.45 47.7667 17.25 50.6C18.0833 53.4 19.05 56.1333 20.15 58.8L26.25 73.6L32.95 58.8C34.2833 55.8333 35.4333 52.95 36.4 50.15C37.3667 47.3167 37.85 45.4667 37.85 44.6C37.25 44.4667 35.9833 44.4 34.05 44.4C33.9833 44.1667 33.95 43.9 33.95 43.6C33.95 43.3 33.9833 43.05 34.05 42.85C36.25 42.95 38.2167 43 39.95 43C41.6833 43 43.3833 42.8667 45.05 42.6C45.25 42.8 45.35 43.0833 45.35 43.45L45.25 43.85C43.95 44.25 42.9167 44.8333 42.15 45.6C41.05 46.7 39.7667 48.8 38.3 51.9C37.5667 53.4667 36.9 54.9333 36.3 56.3C35.7 57.6333 35.3167 58.4667 35.15 58.8L25.05 80.95H24.2L13.4 55C11.3667 49.9333 9.76667 46.7333 8.6 45.4C8.1 44.8333 6.96667 44.3167 5.2 43.85ZM57.9031 79.15L53.4031 79C51.0698 79 48.8698 79.1333 46.8031 79.4C46.6031 79.1333 46.5031 78.85 46.5031 78.55L46.6031 78.15C48.0365 77.8167 49.0031 77.3 49.5031 76.6C49.8698 76.0667 50.1531 75.4333 50.3531 74.7C50.5531 73.9333 50.6531 71.7667 50.6531 68.2V63.4C50.6531 61.3333 50.5531 59.9 50.3531 59.1C50.1865 58.3 49.9198 57.7667 49.5531 57.5C49.1865 57.2333 48.7031 57.0667 48.1031 57L46.2531 56.85C46.1531 56.7167 46.1031 56.5 46.1031 56.2L46.2531 55.55C47.9865 55.1833 49.3865 54.8167 50.4531 54.45C51.5531 54.05 52.8365 53.4833 54.3031 52.75C54.6698 52.75 54.9198 52.95 55.0531 53.35C54.6531 55.6167 54.4531 61.0167 54.4531 69.55C54.4531 71.0833 54.5031 72.7833 54.6031 74.65C54.7365 76.4833 54.9031 77.4167 55.1031 77.45C55.6031 77.55 56.5365 77.6 57.9031 77.6C58.0031 77.8333 58.0531 78.1 58.0531 78.4C58.0531 78.7 58.0031 78.95 57.9031 79.15ZM53.2031 47.05C52.0031 46.2167 51.1531 45.1167 50.6531 43.75C51.0531 43.2833 51.5865 42.8 52.2531 42.3C52.9531 41.7667 53.5531 41.4 54.0531 41.2C55.3198 42.1333 56.1365 43.25 56.5031 44.55C55.5698 45.75 54.4698 46.5833 53.2031 47.05ZM69.2723 74.6C69.2723 75.4 70.2056 76.15 72.0723 76.85C73.9389 77.5167 75.2389 77.85 75.9723 77.85C77.8723 77.85 79.6056 77 81.1723 75.3C82.7723 73.6 83.5723 71.6167 83.5723 69.35C83.5723 65.8833 82.7889 62.9667 81.2223 60.6C79.6556 58.2333 77.9223 57.05 76.0223 57.05C74.1556 57.05 71.9056 58.1 69.2723 60.2V74.6ZM87.7723 67.45C87.7723 69.6833 87.2223 71.6667 86.1223 73.4C85.0556 75.1333 83.7223 76.45 82.1223 77.35C79.0223 79.1167 76.2223 80 73.7223 80C72.8556 80 70.5723 79.6 66.8723 78.8L64.9223 80C64.5889 80 64.3389 79.85 64.1723 79.55C64.6723 77.7167 64.9889 75.55 65.1223 73.05C65.2556 70.5167 65.3223 65.1833 65.3223 57.05V45.25C65.3223 43.05 65.1556 41.5167 64.8223 40.65C64.4889 39.75 63.7889 39.2167 62.7223 39.05L60.9723 38.85C60.9056 38.5833 60.8723 38.3833 60.8723 38.25L60.9723 37.6C62.7723 37.2667 64.1389 36.95 65.0723 36.65C66.0056 36.3167 67.4889 35.5167 69.5223 34.25C69.8223 34.25 70.0723 34.4167 70.2723 34.75C69.6056 38.65 69.2723 46.4167 69.2723 58.05C73.3389 55.6833 76.3556 54.1833 78.3223 53.55C80.8223 54.0833 83.0223 55.6167 84.9223 58.15C86.8223 60.65 87.7723 63.75 87.7723 67.45ZM104.766 76.4C107.499 76.4 109.916 75.6667 112.016 74.2C112.482 74.3667 112.749 74.7167 112.816 75.25L107.416 79.05C106.616 79.6833 104.832 80 102.066 80C99.299 80 96.949 78.7667 95.0156 76.3C93.0823 73.8 92.1156 70.65 92.1156 66.85C92.1156 63.05 93.1656 60.05 95.2656 57.85C97.3656 55.65 99.8656 54.2167 102.766 53.55C105.299 53.55 107.532 54.4 109.466 56.1C110.632 57.1 111.449 58.4 111.916 60C112.016 60.4 112.482 60.6167 113.316 60.65C113.516 60.8833 113.616 61.1333 113.616 61.4C113.616 61.6333 113.582 61.8833 113.516 62.15C107.649 63.5167 101.882 64.4667 96.2156 65C96.2156 69.2667 97.399 72.4667 99.7656 74.6C101.099 75.8 102.766 76.4 104.766 76.4ZM107.916 61.15C108.082 61.05 108.166 60.9333 108.166 60.8C108.166 60.6333 107.949 60.1667 107.516 59.4C107.116 58.6 106.399 57.7667 105.366 56.9C104.332 56 103.249 55.55 102.116 55.55C100.982 55.55 100.149 55.7167 99.6156 56.05C97.749 57.3167 96.6823 59.6167 96.4156 62.95C98.2156 62.95 100.266 62.7667 102.566 62.4C104.866 62 106.649 61.5833 107.916 61.15ZM131.546 56.65C130.546 55.7833 129.262 55.35 127.696 55.35C124.462 55.35 122.846 56.65 122.846 59.25C122.846 60.0833 123.146 60.8833 123.746 61.65C124.379 62.3833 125.146 62.9667 126.046 63.4L129.946 65.25C133.746 67.0833 135.646 69.5333 135.646 72.6C135.646 74.8667 134.746 76.6667 132.946 78C131.146 79.3333 129.012 80 126.546 80C125.246 80 123.879 79.8667 122.446 79.6C121.046 79.3667 120.046 79.1167 119.446 78.85C119.346 77.35 119.046 75.2667 118.546 72.6C118.912 72.3667 119.212 72.25 119.446 72.25C119.712 72.25 119.896 72.2833 119.996 72.35C120.662 74.35 121.246 75.6333 121.746 76.2C122.112 76.5667 122.762 76.9667 123.696 77.4C124.629 77.8333 125.729 78.05 126.996 78.05C128.296 78.05 129.412 77.7 130.346 77C131.279 76.3 131.746 75.25 131.746 73.85C131.746 72.9167 131.562 72.2167 131.196 71.75C130.829 71.2833 130.512 70.9333 130.246 70.7C130.012 70.4333 129.729 70.2 129.396 70C129.096 69.8 128.829 69.65 128.596 69.55C128.396 69.4167 128.179 69.3 127.946 69.2C127.746 69.0667 127.629 69 127.596 69L123.846 67.2C120.612 65.6667 118.996 63.45 118.996 60.55C118.996 58.1833 119.896 56.4333 121.696 55.3C123.496 54.1333 125.529 53.55 127.796 53.55C128.896 53.55 130.129 53.7 131.496 54C132.896 54.2667 133.946 54.55 134.646 54.85C134.412 55.65 134.146 57.5167 133.846 60.45C133.679 60.5833 133.446 60.65 133.146 60.65C132.879 60.65 132.612 60.6167 132.346 60.55C132.079 58.8833 131.812 57.5833 131.546 56.65Z" fill="#EFE3C8"/>
</svg>
